<svg xmlns="http://www.w3.org/2000/svg" viewBox="0 0 100 100">
  <defs>
    <linearGradient id="grad" x1="0%" y1="0%" x2="100%" y2="100%">
      <stop offset="0%" style="stop-color:#e8c9a8;stop-opacity:1" />
      <stop offset="100%" style="stop-color:#d4a574;stop-opacity:1" />
    </linearGradient>
  </defs>
  <rect width="100" height="100" rx="20" fill="#1a1a1f"/>
  <g fill="url(#grad)" transform="translate(50,50)">
    <!-- Scissors icon -->
    <path d="M-20,-25 C-25,-20 -25,-10 -20,-5 L0,15 L5,10 L-15,-10 C-18,-13 -18,-17 -15,-20 C-12,-23 -8,-23 -5,-20 L15,0 L20,-5 C25,-10 25,-20 20,-25 C15,-30 5,-30 0,-25 L-5,-20 L-10,-25 C-13,-28 -17,-28 -20,-25 Z" transform="rotate(45)"/>
    <circle cx="-12" cy="-12" r="6" fill="#1a1a1f" transform="rotate(45)"/>
    <circle cx="12" cy="-12" r="6" fill="#1a1a1f" transform="rotate(45)"/>
  </g>
</svg>
